HIERARCHY
ROOT Hips
{
 OFFSET 0.000000 0.000000 0.000000
 CHANNELS 6 Xposition Yposition Zposition Yrotation Xrotation Zrotation
 JOINT Chest
 {
  OFFSET 0.000000 9.585900 0.002600
  CHANNELS 3 Yrotation Xrotation Zrotation
  JOINT Chest2
  {
   OFFSET 0.000000 9.601200 -0.005300
   CHANNELS 3 Yrotation Xrotation Zrotation
   JOINT Chest3
   {
    OFFSET 0.000000 9.561800 0.000000
    CHANNELS 3 Yrotation Xrotation Zrotation
    JOINT Chest4
    {
     OFFSET 0.000000 9.552100 0.000000
     CHANNELS 3 Yrotation Xrotation Zrotation
     JOINT Neck
     {
      OFFSET 0.000000 14.453000 0.000000
      CHANNELS 3 Yrotation Xrotation Zrotation
      JOINT Head
      {
       OFFSET 0.000000 8.936500 -0.011300
       CHANNELS 3 Yrotation Xrotation Zrotation
       End Site
       {
        OFFSET 0.000000 17.073600 -0.006000
       }
      }
     }
     JOINT RightCollar
     {
      OFFSET -2.921100 9.558500 0.000000
      CHANNELS 3 Yrotation Xrotation Zrotation
      JOINT RightShoulder
      {
       OFFSET -13.519700 0.000000 0.000000
       CHANNELS 3 Yrotation Xrotation Zrotation
       JOINT RightElbow
       {
        OFFSET 0.000000 -29.696600 0.000000
        CHANNELS 3 Yrotation Xrotation Zrotation
        JOINT RightWrist
        {
         OFFSET 0.000000 -24.004700 0.000000
         CHANNELS 3 Yrotation Xrotation Zrotation
         End Site
         {
          OFFSET 0.000000 -17.728500 0.000000
         }
        }
       }
      }
     }
     JOINT LeftCollar
     {
      OFFSET 2.921100 9.558500 0.000000
      CHANNELS 3 Yrotation Xrotation Zrotation
      JOINT LeftShoulder
      {
       OFFSET 13.519700 0.000000 0.000000
       CHANNELS 3 Yrotation Xrotation Zrotation
       JOINT LeftElbow
       {
        OFFSET 0.000000 -29.696600 0.000000
        CHANNELS 3 Yrotation Xrotation Zrotation
        JOINT LeftWrist
        {
         OFFSET 0.000000 -24.004700 0.000000
         CHANNELS 3 Yrotation Xrotation Zrotation
         End Site
         {
          OFFSET 0.000000 -17.728500 0.000000
         }
        }
       }
      }
     }
    }
   }
  }
 }
 JOINT RightHip
 {
  OFFSET -7.771700 -0.012900 -0.001300
  CHANNELS 3 Yrotation Xrotation Zrotation
  JOINT RightKnee
  {
   OFFSET 0.000000 -40.869800 0.001200
   CHANNELS 3 Yrotation Xrotation Zrotation
   JOINT RightAnkle
   {
    OFFSET 0.000000 -39.717900 0.002100
    CHANNELS 3 Yrotation Xrotation Zrotation
    JOINT RightToe
    {
     OFFSET 0.000000 -4.965400 11.033500
     CHANNELS 3 Yrotation Xrotation Zrotation
     End Site
     {
      OFFSET 0.000000 -1.423100 5.872300
     }
    }
   }
  }
 }
 JOINT LeftHip
 {
  OFFSET 7.771700 -0.012900 -0.001300
  CHANNELS 3 Yrotation Xrotation Zrotation
  JOINT LeftKnee
  {
   OFFSET 0.000000 -40.869800 0.001200
   CHANNELS 3 Yrotation Xrotation Zrotation
   JOINT LeftAnkle
   {
    OFFSET 0.000000 -39.717900 0.002100
    CHANNELS 3 Yrotation Xrotation Zrotation
    JOINT LeftToe
    {
     OFFSET 0.000000 -4.965400 11.033500
     CHANNELS 3 Yrotation Xrotation Zrotation
     End Site
     {
      OFFSET 0.000000 -1.423100 5.872300
     }
    }
   }
  }
 }
}
MOTION
Frames: 11
Frame Time: 0.008333
0.000000 85.388000 0.000000 0.000000 -5.767877 0.000000 0.000000 11.653817 0.000000 0.000000 -5.885947 0.000000 0.000000 -0.000000 0.000000 0.000000 -0.000000 0.000000 0.000000 12.528835 0.000000 0.000000 0.711642 0.000000 0.000000 -0.000000 0.000000 0.000000 0.000000 -90.000000 0.000000 -2.309062 0.000000 0.000000 2.309062 0.000000 0.000000 -0.000000 0.000000 0.000000 -0.000000 90.000000 0.000000 -2.309062 0.000000 0.000000 2.309062 0.000000 0.000000 8.520406 0.000000 0.000000 1.905762 0.000000 -0.000000 -4.658285 0.000000 0.000000 -0.000000 0.000000 0.000000 8.520406 0.000000 0.000000 1.905762 0.000000 -0.000000 -4.658285 0.000000 0.000000 -0.000000 0.000000
-50.132789 55.101336 45.426399 -178.059747 -26.497131 -10.704047 -0.946878 9.011635 5.560144 -0.585268 5.154400 2.108898 -0.702599 6.446062 2.630447 -0.585284 5.154398 2.108869 8.964383 24.267433 2.754335 9.281788 0.930872 0.987820 -2.668334 5.640828 -4.519644 -22.622761 3.169803 -0.997117 -79.146531 -43.013492 122.953483 -0.544257 -7.547831 23.991849 -3.947886 4.317404 -1.311322 16.589176 4.405728 0.119002 108.822268 -52.473230 -136.393924 29.980796 16.687942 -61.612114 -19.364514 -39.944678 5.465904 15.535522 86.506580 10.936041 0.266375 -16.766367 3.298403 -0.123085 0.482113 -0.039239 -17.374135 -51.330311 16.088273 168.941514 78.851992 163.832251 -1.556382 -16.358082 2.157139 -0.509656 -2.546599 -0.251052
-50.119356 55.103926 45.406713 -178.103375 -26.509533 -10.712577 -0.916810 9.094093 5.567941 -0.587669 5.160898 2.087749 -0.705773 6.454128 2.603914 -0.587628 5.160859 2.087719 8.979881 24.288354 2.782592 9.293610 0.957741 1.015962 -2.959964 5.871283 -4.626760 -22.811381 4.081274 -1.324463 -78.971241 -42.626835 124.102448 -0.543383 -7.505061 24.211714 -3.673946 4.453980 -1.094271 17.462310 5.433630 0.455716 108.185135 -51.177950 -137.059848 30.512616 16.566682 -60.463342 -19.339164 -39.922286 5.508654 15.068815 86.524462 10.463211 0.274813 -16.788494 3.306799 -0.124978 0.481466 -0.040458 -17.387466 -51.304658 16.138398 169.003862 78.823527 163.912322 -1.537155 -16.389832 2.124989 -0.514692 -2.549398 -0.250359
-50.110952 55.103103 45.392592 -178.120558 -26.479450 -10.688075 -0.920778 9.131834 5.538913 -0.584341 5.176366 2.070776 -0.701668 6.473383 2.582789 -0.584258 5.176323 2.070766 8.983502 24.325945 2.813456 9.291713 1.003869 1.049837 -3.250250 6.048821 -4.724550 -22.914950 4.902440 -1.630310 -78.613803 -42.156024 124.936718 -0.553775 -7.434409 24.296816 -3.441731 4.559830 -0.877645 18.321923 6.287840 0.696949 106.937002 -49.797237 -137.152988 30.995972 16.532740 -59.274117 -19.321711 -39.959528 5.509994 14.787991 86.553008 10.172033 0.278295 -16.814744 3.318635 -0.125390 0.480719 -0.041369 -17.391260 -51.330072 16.149553 169.071330 78.812804 163.981409 -1.529303 -16.409533 2.114766 -0.519899 -2.546127 -0.252076
-50.103958 55.100997 45.383533 -178.142853 -26.433137 -10.640707 -0.925929 9.143907 5.496123 -0.577715 5.198106 2.057676 -0.693370 6.500534 2.566504 -0.577629 5.198062 2.057650 8.980231 24.387856 2.845278 9.282343 1.079161 1.086579 -3.524262 6.194594 -4.816983 -22.953076 5.627072 -1.898296 -78.101890 -41.630782 125.481576 -0.571739 -7.339655 24.277863 -3.242950 4.653011 -0.663410 19.082107 6.995312 0.839477 105.337583 -48.388850 -136.836255 31.384371 16.569994 -58.189132 -19.293816 -40.026966 5.490042 14.665910 86.583512 10.042015 0.281827 -16.837304 3.327596 -0.127794 0.479310 -0.043383 -17.374288 -51.376528 16.141264 169.143201 78.811697 164.049379 -1.523489 -16.426577 2.112543 -0.524704 -2.537723 -0.257116
-50.094143 55.101201 45.375906 -178.195989 -26.415966 -10.588540 -0.898920 9.170611 5.467673 -0.568674 5.224078 2.048324 -0.682095 6.532991 2.554904 -0.568637 5.224022 2.048269 8.974519 24.478750 2.876776 9.270995 1.189867 1.123869 -3.772587 6.322733 -4.900478 -22.939173 6.263638 -2.129145 -77.522942 -41.103608 125.804892 -0.605041 -7.229546 24.182576 -3.070996 4.736558 -0.454901 19.594229 7.610686 0.887498 103.784301 -47.047346 -136.316677 31.688128 16.632508 -57.299757 -19.232619 -40.068894 5.472893 14.503588 86.607235 9.875914 0.281584 -16.855864 3.334161 -0.128281 0.481220 -0.044651 -17.324523 -51.394688 16.132805 169.209613 78.810801 164.117584 -1.515314 -16.442936 2.101649 -0.526771 -2.534417 -0.258506
-50.081619 55.103175 45.371900 -178.217178 -26.414119 -10.561847 -0.896294 9.211798 5.455505 -0.556716 5.253195 2.042777 -0.673273 6.513440 2.547782 -0.553216 5.309286 2.041857 8.968296 24.598810 2.907199 9.260278 1.336514 1.160469 -3.987175 6.428106 -4.967089 -22.871040 6.841524 -2.336055 -77.002719 -40.636288 125.993286 -0.661718 -7.119894 24.028389 -2.919760 4.811169 -0.255273 19.745706 8.164312 0.840459 102.627190 -45.869130 -135.777825 31.922662 16.692026 -56.631579 -19.207647 -40.081488 5.477570 14.151956 86.623257 9.506147 0.272822 -16.868106 3.350887 -0.123258 0.481488 -0.045964 -17.306528 -51.393086 16.136401 169.242624 78.812443 164.151672 -1.507008 -16.456965 2.096351 -0.535853 -2.526464 -0.264589
-50.069917 55.104998 45.374537 -178.256080 -26.421937 -10.519923 -0.874716 9.245905 5.437055 -0.544598 5.291531 2.045702 -0.652328 6.582588 2.544581 -0.539421 5.314910 2.042597 8.959226 24.743888 2.935742 9.247522 1.513930 1.196059 -4.166016 6.498280 -5.016817 -22.739360 7.387913 -2.528242 -76.638496 -40.272332 126.107182 -0.721603 -7.038263 23.820926 -2.787444 4.882775 -0.074255 19.558241 8.643525 0.715855 102.010748 -44.908453 -135.312577 32.095524 16.755393 -56.176304 -19.164675 -40.095137 5.467819 13.957537 86.632465 9.296528 0.268486 -16.875561 3.365445 -0.121194 0.489087 -0.053603 -17.292101 -51.379979 16.152670 169.295144 78.823360 164.185357 -1.509439 -16.468016 2.081773 -0.534693 -2.514788 -0.261433
-50.057725 55.108970 45.379747 -178.322287 -26.473243 -10.470151 -0.814001 9.296043 5.418583 -0.537562 5.329784 2.055732 -0.623420 6.673311 2.556790 -0.524926 5.325307 2.044201 8.942644 24.905463 2.961356 9.227253 1.711445 1.230391 -4.318026 6.533242 -5.056770 -22.559072 7.910541 -2.695555 -76.462676 -40.030616 126.187278 -0.742491 -6.991880 23.552479 -2.681477 4.955350 0.074134 19.167983 9.019163 0.555110 101.860753 -44.174230 -134.925388 32.214050 16.843434 -55.905377 -19.089989 -40.074233 5.453479 13.770336 86.637861 9.090796 0.265347 -16.867686 3.370735 -0.119174 0.487061 -0.054417 -17.202406 -51.337857 16.125116 169.303241 78.831016 164.199040 -1.497124 -16.455718 2.067746 -0.545810 -2.527354 -0.266060
-50.044058 55.113127 45.391384 -178.367224 -26.534931 -10.441580 -0.774899 9.370381 5.425068 -0.514763 5.365412 2.065140 -0.598969 6.726527 2.564346 -0.505616 5.368009 2.049966 8.917301 25.074818 2.984872 9.197708 1.918261 1.264372 -4.446872 6.542685 -5.089198 -22.377042 8.404608 -2.819102 -76.449311 -39.914540 126.260350 -0.699439 -6.956435 23.217302 -2.603954 5.024585 0.182471 18.752843 9.272425 0.405099 101.956661 -43.647703 -134.574386 32.283144 16.948093 -55.752389 -19.041093 -40.034779 5.436965 14.031128 86.626412 9.347028 0.251567 -16.854963 3.361908 -0.111171 0.483663 -0.054993 -17.127684 -51.286941 16.100504 169.242010 78.839990 164.151770 -1.480995 -16.440026 2.052840 -0.573048 -2.533342 -0.274791
-50.032003 55.116154 45.410152 -178.399718 -26.600374 -10.412896 -0.743936 9.442300 5.430471 -0.488151 5.418495 2.081627 -0.575168 6.769225 2.567602 -0.484066 5.413395 2.057455 8.883791 25.245420 3.006193 9.159392 2.126358 1.297749 -4.551754 6.527072 -5.113954 -22.237282 8.865179 -2.890435 -76.543996 -39.916005 126.333527 -0.600572 -6.898769 22.823220 -2.550025 5.078905 0.251358 18.467325 9.401825 0.302179 102.049976 -43.295981 -134.205941 32.306470 17.027468 -55.637468 -18.998684 -39.995529 5.414898 14.083114 86.614713 9.391376 0.246593 -16.834092 3.356502 -0.101686 0.484035 -0.056996 -17.061542 -51.235520 16.076204 169.191062 78.857623 164.105938 -1.476465 -16.415282 2.044340 -0.587417 -2.538424 -0.278622
